# xmcd
#
# Track frame offsets:
#	150
#	16350
#	31465
#	47340
#	65885
#	79295
#	94084
#	108083
#	120776
#	136316
#	152705
#
# Disc length: 2245 seconds
#
# Revision: 0
# Processed by: cddbd v1.4PL0 Copyright (c) Steve Scherf et al.
# Submitted via: audiograbber 1.82.01
#
DISCID=8308c30b
DTITLE=Chuck Cannon - Mailbox Money
DYEAR=1900
DGENRE=Country
TTITLE0=We Were In Love
TTITLE1=Dreamwalkin'
TTITLE2=That's My Baby
TTITLE3=I Love The Way You Love Me
TTITLE4=Me Too
TTITLE5=That's How You Know
TTITLE6=The Whisper Of Your Heart
TTITLE7=Rodeo Road
TTITLE8=Getcha Some
TTITLE9=I'm In Love With Her
TTITLE10=S*A*T*U*R*D*A*Y Night
EXTD=
EXTT0=
EXTT1=
EXTT2=
EXTT3=
EXTT4=
EXTT5=
EXTT6=
EXTT7=
EXTT8=
EXTT9=
EXTT10=
PLAYORDER=
